<svg xmlns="http://www.w3.org/2000/svg" viewBox="0 0 280 280" width="100%" height="100%">
    
  <defs>
    <linearGradient id="goldLuxury" x1="0%" y1="0%" x2="100%" y2="100%">
      <stop offset="0%" stop-color="#fff1c5"/>
      <stop offset="25%" stop-color="#e2c174"/>
      <stop offset="50%" stop-color="#c59b3f"/>
      <stop offset="75%" stop-color="#9d7422"/>
      <stop offset="100%" stop-color="#d4af37"/>
    </linearGradient>
    <linearGradient id="goldRing" x1="0%" y1="100%" x2="100%" y2="0%">
      <stop offset="0%" stop-color="#8a6118"/>
      <stop offset="50%" stop-color="#e8cf8d"/>
      <stop offset="100%" stop-color="#9a7324"/>
    </linearGradient>
    <linearGradient id="emeraldLuxury" x1="0%" y1="0%" x2="100%" y2="100%">
      <stop offset="0%" stop-color="#1b4d39"/>
      <stop offset="50%" stop-color="#0c2b20"/>
      <stop offset="100%" stop-color="#051610"/>
    </linearGradient>
    <filter id="glow" x="-20%" y="-20%" width="140%" height="140%">
      <feGaussianBlur stdDeviation="2" result="blur" />
      <feComposite in="SourceGraphic" in2="blur" operator="over" />
    </filter>
  </defs>

    
    <rect width="280" height="280" rx="140" fill="#080d14"/>
    <circle cx="140" cy="140" r="132" fill="#05090f" stroke="url(#goldRing)" stroke-width="2"/>
    <circle cx="140" cy="140" r="126" fill="none" stroke="url(#goldLuxury)" stroke-width="0.8" stroke-dasharray="2 3" opacity="0.85"/>
    <circle cx="140" cy="140" r="120" fill="none" stroke="url(#goldLuxury)" stroke-width="1.2"/>
    
    <!-- 4 Cardinal Accents -->
    <polygon points="140,9 143,15 137,15" fill="url(#goldLuxury)"/>
    <polygon points="140,271 143,265 137,265" fill="url(#goldLuxury)"/>
    <polygon points="9,140 15,143 15,137" fill="url(#goldLuxury)"/>
    <polygon points="271,140 265,143 265,137" fill="url(#goldLuxury)"/>
  
    
        <!-- Moka: Artisanal Botanical Blossom & Coffee Monogram -->
        <g transform="translate(140, 110)">
          <circle cx="0" cy="0" r="38" fill="none" stroke="url(#goldLuxury)" stroke-width="1.5"/>
          <ellipse cx="0" cy="-6" rx="14" ry="20" fill="none" stroke="url(#goldLuxury)" stroke-width="1.5"/>
          <path d="M0 -26 C-6 -10 6 6 0 14" stroke="url(#goldLuxury)" stroke-width="1.5"/>
          <circle cx="0" cy="-32" r="3" fill="url(#goldLuxury)"/>
        </g>
        <text x="140" y="186" font-family="'Cinzel', serif" font-size="18" font-weight="700" fill="url(#goldLuxury)" text-anchor="middle" letter-spacing="5">MOKA</text>
        <text x="140" y="202" font-family="'Plus Jakarta Sans', sans-serif" font-size="8" font-weight="700" fill="#f5dfa0" text-anchor="middle" letter-spacing="3">BUTİK HOTEL</text>
      
  </svg>