<svg xmlns="http://www.w3.org/2000/svg" viewBox="0 0 280 280" width="100%" height="100%">
    
  <defs>
    <linearGradient id="goldLuxury" x1="0%" y1="0%" x2="100%" y2="100%">
      <stop offset="0%" stop-color="#fff1c5"/>
      <stop offset="25%" stop-color="#e2c174"/>
      <stop offset="50%" stop-color="#c59b3f"/>
      <stop offset="75%" stop-color="#9d7422"/>
      <stop offset="100%" stop-color="#d4af37"/>
    </linearGradient>
    <linearGradient id="goldRing" x1="0%" y1="100%" x2="100%" y2="0%">
      <stop offset="0%" stop-color="#8a6118"/>
      <stop offset="50%" stop-color="#e8cf8d"/>
      <stop offset="100%" stop-color="#9a7324"/>
    </linearGradient>
    <linearGradient id="emeraldLuxury" x1="0%" y1="0%" x2="100%" y2="100%">
      <stop offset="0%" stop-color="#1b4d39"/>
      <stop offset="50%" stop-color="#0c2b20"/>
      <stop offset="100%" stop-color="#051610"/>
    </linearGradient>
    <filter id="glow" x="-20%" y="-20%" width="140%" height="140%">
      <feGaussianBlur stdDeviation="2" result="blur" />
      <feComposite in="SourceGraphic" in2="blur" operator="over" />
    </filter>
  </defs>

    
    <rect width="280" height="280" rx="140" fill="#ffffff"/>
    <circle cx="140" cy="140" r="132" fill="#fcfbfa" stroke="url(#goldRing)" stroke-width="2"/>
    <circle cx="140" cy="140" r="126" fill="none" stroke="url(#goldLuxury)" stroke-width="0.8" stroke-dasharray="2 3" opacity="0.85"/>
    <circle cx="140" cy="140" r="120" fill="none" stroke="url(#goldLuxury)" stroke-width="1.2"/>
    
    <!-- 4 Cardinal Accents -->
    <polygon points="140,9 143,15 137,15" fill="url(#goldLuxury)"/>
    <polygon points="140,271 143,265 137,265" fill="url(#goldLuxury)"/>
    <polygon points="9,140 15,143 15,137" fill="url(#goldLuxury)"/>
    <polygon points="271,140 265,143 265,137" fill="url(#goldLuxury)"/>
  
    
        <!-- Yamaç Motel: Cliff Horizon & Marine Compass -->
        <g transform="translate(140, 110)">
          <circle cx="0" cy="0" r="40" fill="none" stroke="url(#goldLuxury)" stroke-width="1.5"/>
          <!-- Mountain/Cliff Lines -->
          <path d="M-36 18 L-12 -18 L10 6 L22 -8 L36 18" fill="none" stroke="url(#goldLuxury)" stroke-width="1.8"/>
          <circle cx="16" cy="-22" r="7" fill="url(#goldLuxury)"/>
        </g>
        <text x="140" y="186" font-family="'Cinzel', serif" font-size="18" font-weight="700" fill="url(#goldLuxury)" text-anchor="middle" letter-spacing="4">YAMAÇ</text>
        <text x="140" y="202" font-family="'Plus Jakarta Sans', sans-serif" font-size="8" font-weight="700" fill="#143527" text-anchor="middle" letter-spacing="3">SELİMİYE MOTEL</text>
      
  </svg>